{
  "accessors": [
    {
      "bufferView": 2,
      "componentType": 5126,
      "count": 21120,
      "max": [
        14.028379440307617,
        4.8582425117492676,
        8.382542610168457
      ],
      "min": [
        -15.873702049255371,
        -0.34824833273887634,
        -14.779523849487305
      ],
      "type": "VEC3"
    },
    {
      "bufferView": 2,
      "byteOffset": 253440,
      "componentType": 5126,
      "count": 21120,
      "max": [
        0.99992668628692627,
        1,
        0.99999785423278809
      ],
      "min": [
        -0.99989044666290283,
        -0.99998772144317627,
        -0.99999904632568359
      ],
      "type": "VEC3"
    },
    {
      "bufferView": 1,
      "componentType": 5126,
      "count": 21120,
      "max": [
        0.55121529102325439,
        0.9285355806350708
      ],
      "min": [
        0.5,
        0.39970165491104126
      ],
      "type": "VEC2"
    },
    {
      "bufferView": 0,
      "componentType": 5125,
      "count": 38160,
      "max": [
        21119
      ],
      "min": [
        0
      ],
      "type": "SCALAR"
    },
    {
      "bufferView": 2,
      "byteOffset": 506880,
      "componentType": 5126,
      "count": 972,
      "max": [
        0.52887403964996338,
        1.4502642154693604,
        1.5034065246582031
      ],
      "min": [
        -0.52887368202209473,
        0.31697523593902588,
        -2.0923159122467041
      ],
      "type": "VEC3"
    },
    {
      "bufferView": 2,
      "byteOffset": 518544,
      "componentType": 5126,
      "count": 972,
      "max": [
        1,
        1,
        1
      ],
      "min": [
        -1,
        -1,
        -1
      ],
      "type": "VEC3"
    },
    {
      "bufferView": 1,
      "byteOffset": 168960,
      "componentType": 5126,
      "count": 972,
      "max": [
        0.37500017881393433,
        0.98668819665908813
      ],
      "min": [
        0.37499994039535522,
        0.18501970171928406
      ],
      "type": "VEC2"
    },
    {
      "bufferView": 0,
      "byteOffset": 152640,
      "componentType": 5125,
      "count": 2004,
      "max": [
        971
      ],
      "min": [
        0
      ],
      "type": "SCALAR"
    },
    {
      "bufferView": 2,
      "byteOffset": 530208,
      "componentType": 5126,
      "count": 599,
      "max": [
        0.50456947088241577,
        1.4374032020568848,
        1.3832886219024658
      ],
      "min": [
        -0.51362651586532593,
        0.30411848425865173,
        -0.70384514331817627
      ],
      "type": "VEC3"
    },
    {
      "bufferView": 2,
      "byteOffset": 537396,
      "componentType": 5126,
      "count": 599,
      "max": [
        1,
        1,
        1
      ],
      "min": [
        -1,
        -1,
        -1
      ],
      "type": "VEC3"
    },
    {
      "bufferView": 1,
      "byteOffset": 176736,
      "componentType": 5126,
      "count": 599,
      "max": [
        0.37500017881393433,
        1.6494590044021606
      ],
      "min": [
        0.37499994039535522,
        0.17681710422039032
      ],
      "type": "VEC2"
    },
    {
      "bufferView": 0,
      "byteOffset": 160656,
      "componentType": 5125,
      "count": 1224,
      "max": [
        598
      ],
      "min": [
        0
      ],
      "type": "SCALAR"
    },
    {
      "bufferView": 2,
      "byteOffset": 544584,
      "componentType": 5126,
      "count": 599,
      "max": [
        0.50456947088241577,
        1.4373930692672729,
        1.3832886219024658
      ],
      "min": [
        -0.51362651586532593,
        0.30411848425865173,
        -0.70384514331817627
      ],
      "type": "VEC3"
    },
    {
      "bufferView": 2,
      "byteOffset": 551772,
      "componentType": 5126,
      "count": 599,
      "max": [
        1,
        1,
        1
      ],
      "min": [
        -1,
        -1,
        -1
      ],
      "type": "VEC3"
    },
    {
      "bufferView": 1,
      "byteOffset": 181528,
      "componentType": 5126,
      "count": 599,
      "max": [
        0.37500017881393433,
        1.6494590044021606
      ],
      "min": [
        0.37499994039535522,
        0.17681710422039032
      ],
      "type": "VEC2"
    },
    {
      "bufferView": 0,
      "byteOffset": 165552,
      "componentType": 5125,
      "count": 1224,
      "max": [
        598
      ],
      "min": [
        0
      ],
      "type": "SCALAR"
    },
    {
      "bufferView": 2,
      "byteOffset": 558960,
      "componentType": 5126,
      "count": 599,
      "max": [
        0.50456947088241577,
        1.4373836517333984,
        1.3832886219024658
      ],
      "min": [
        -0.51362651586532593,
        0.30411848425865173,
        -0.70384514331817627
      ],
      "type": "VEC3"
    },
    {
      "bufferView": 2,
      "byteOffset": 566148,
      "componentType": 5126,
      "count": 599,
      "max": [
        1,
        1,
        1
      ],
      "min": [
        -1,
        -1,
        -1
      ],
      "type": "VEC3"
    },
    {
      "bufferView": 1,
      "byteOffset": 186320,
      "componentType": 5126,
      "count": 599,
      "max": [
        0.37500017881393433,
        1.6494590044021606
      ],
      "min": [
        0.37499994039535522,
        0.17681710422039032
      ],
      "type": "VEC2"
    },
    {
      "bufferView": 0,
      "byteOffset": 170448,
      "componentType": 5125,
      "count": 1224,
      "max": [
        598
      ],
      "min": [
        0
      ],
      "type": "SCALAR"
    },
    {
      "bufferView": 3,
      "componentType": 5126,
      "count": 528,
      "max": [
        22
      ],
      "min": [
        0.041666667908430099
      ],
      "type": "SCALAR"
    },
    {
      "bufferView": 4,
      "componentType": 5126,
      "count": 528,
      "max": [
        12.951610565185547,
        4.273261547088623,
        7.3074617385864258
      ],
      "min": [
        -14.801663398742676,
        -0.12017221003770828,
        -13.701931953430176
      ],
      "type": "VEC3"
    },
    {
      "bufferView": 3,
      "byteOffset": 2112,
      "componentType": 5126,
      "count": 528,
      "max": [
        22
      ],
      "min": [
        0.041666667908430099
      ],
      "type": "SCALAR"
    },
    {
      "bufferView": 5,
      "componentType": 5126,
      "count": 528,
      "max": [
        0.21139413118362427,
        0.99964702129364014,
        0.26531067490577698,
        0.99974656105041504
      ],
      "min": [
        -0.12745377421379089,
        -0.9993630051612854,
        -0.15238869190216064,
        -0.0077063348144292831
      ],
      "type": "VEC4"
    },
    {
      "bufferView": 3,
      "byteOffset": 4224,
      "componentType": 5126,
      "count": 497,
      "max": [
        22
      ],
      "min": [
        0.041666667908430099
      ],
      "type": "SCALAR"
    },
    {
      "bufferView": 4,
      "byteOffset": 6336,
      "componentType": 5126,
      "count": 497,
      "max": [
        0.96948158740997314,
        1,
        1.0000001192092896
      ],
      "min": [
        0.96948134899139404,
        0.99999982118606567,
        0.99999982118606567
      ],
      "type": "VEC3"
    },
    {
      "bufferView": 3,
      "byteOffset": 6212,
      "componentType": 5126,
      "count": 528,
      "max": [
        22
      ],
      "min": [
        0.041666667908430099
      ],
      "type": "SCALAR"
    },
    {
      "bufferView": 4,
      "byteOffset": 12300,
      "componentType": 5126,
      "count": 528,
      "max": [
        12.953334808349609,
        4.2747073173522949,
        7.3083710670471191
      ],
      "min": [
        -14.80026912689209,
        -0.11963420361280441,
        -13.702143669128418
      ],
      "type": "VEC3"
    },
    {
      "bufferView": 3,
      "byteOffset": 8324,
      "componentType": 5126,
      "count": 528,
      "max": [
        22
      ],
      "min": [
        0.041666667908430099
      ],
      "type": "SCALAR"
    },
    {
      "bufferView": 5,
      "byteOffset": 8448,
      "componentType": 5126,
      "count": 528,
      "max": [
        0.24479806423187256,
        0.99974220991134644,
        0.21139779686927795,
        0.99962812662124634
      ],
      "min": [
        -0.26547539234161377,
        -0.99957448244094849,
        -0.036907047033309937,
        -0.0081659583374857903
      ],
      "type": "VEC4"
    },
    {
      "bufferView": 3,
      "byteOffset": 10436,
      "componentType": 5126,
      "count": 442,
      "max": [
        22
      ],
      "min": [
        0.041666667908430099
      ],
      "type": "SCALAR"
    },
    {
      "bufferView": 4,
      "byteOffset": 18636,
      "componentType": 5126,
      "count": 442,
      "max": [
        1.0000001192092896,
        1.0000001192092896,
        1.0000001192092896
      ],
      "min": [
        0.99999988079071045,
        0.99999982118606567,
        0.99999982118606567
      ],
      "type": "VEC3"
    },
    {
      "bufferView": 3,
      "byteOffset": 12204,
      "componentType": 5126,
      "count": 528,
      "max": [
        22
      ],
      "min": [
        0.041666667908430099
      ],
      "type": "SCALAR"
    },
    {
      "bufferView": 4,
      "byteOffset": 23940,
      "componentType": 5126,
      "count": 528,
      "max": [
        12.953989028930664,
        4.2737431526184082,
        7.3070359230041504
      ],
      "min": [
        -14.802361488342285,
        -0.11999288946390152,
        -13.70200252532959
      ],
      "type": "VEC3"
    },
    {
      "bufferView": 3,
      "byteOffset": 14316,
      "componentType": 5126,
      "count": 528,
      "max": [
        22
      ],
      "min": [
        0.041666667908430099
      ],
      "type": "SCALAR"
    },
    {
      "bufferView": 5,
      "byteOffset": 16896,
      "componentType": 5126,
      "count": 528,
      "max": [
        0.24482746422290802,
        0.99974185228347778,
        0.21139706671237946,
        0.99962806701660156
      ],
      "min": [
        -0.26560288667678833,
        -0.99964898824691772,
        -0.036742251366376877,
        -0.0075475848279893398
      ],
      "type": "VEC4"
    },
    {
      "bufferView": 3,
      "byteOffset": 16428,
      "componentType": 5126,
      "count": 460,
      "max": [
        22
      ],
      "min": [
        0.041666667908430099
      ],
      "type": "SCALAR"
    },
    {
      "bufferView": 4,
      "byteOffset": 30276,
      "componentType": 5126,
      "count": 460,
      "max": [
        1.0000001192092896,
        1.0000001192092896,
        1.0000001192092896
      ],
      "min": [
        0.99999982118606567,
        0.99999982118606567,
        0.99999982118606567
      ],
      "type": "VEC3"
    },
    {
      "bufferView": 3,
      "byteOffset": 18268,
      "componentType": 5126,
      "count": 528,
      "max": [
        22
      ],
      "min": [
        0.041666667908430099
      ],
      "type": "SCALAR"
    },
    {
      "bufferView": 4,
      "byteOffset": 35796,
      "componentType": 5126,
      "count": 528,
      "max": [
        12.951610565185547,
        4.273261547088623,
        7.3074617385864258
      ],
      "min": [
        -14.801663398742676,
        -0.12017221003770828,
        -13.701931953430176
      ],
      "type": "VEC3"
    },
    {
      "bufferView": 3,
      "byteOffset": 20380,
      "componentType": 5126,
      "count": 528,
      "max": [
        22
      ],
      "min": [
        0.041666667908430099
      ],
      "type": "SCALAR"
    },
    {
      "bufferView": 5,
      "byteOffset": 25344,
      "componentType": 5126,
      "count": 528,
      "max": [
        0.24484206736087799,
        0.99974668025970459,
        0.21139414608478546,
        0.99964702129364014
      ],
      "min": [
        -0.2653108537197113,
        -0.99967682361602783,
        -0.036659631878137589,
        -0.0017224831972271204
      ],
      "type": "VEC4"
    },
    {
      "bufferView": 3,
      "byteOffset": 22492,
      "componentType": 5126,
      "count": 432,
      "max": [
        22
      ],
      "min": [
        0.041666667908430099
      ],
      "type": "SCALAR"
    },
    {
      "bufferView": 4,
      "byteOffset": 42132,
      "componentType": 5126,
      "count": 432,
      "max": [
        1.0000001192092896,
        1.0000001192092896,
        1.0000001192092896
      ],
      "min": [
        0.99999982118606567,
        0.99999988079071045,
        0.99999982118606567
      ],
      "type": "VEC3"
    }
  ],
  "animations": [
    {
      "channels": [
        {
          "sampler": 0,
          "target": {
            "node": 6,
            "path": "translation"
          }
        },
        {
          "sampler": 1,
          "target": {
            "node": 6,
            "path": "rotation"
          }
        },
        {
          "sampler": 2,
          "target": {
            "node": 6,
            "path": "scale"
          }
        },
        {
          "sampler": 3,
          "target": {
            "node": 8,
            "path": "translation"
          }
        },
        {
          "sampler": 4,
          "target": {
            "node": 8,
            "path": "rotation"
          }
        },
        {
          "sampler": 5,
          "target": {
            "node": 8,
            "path": "scale"
          }
        },
        {
          "sampler": 6,
          "target": {
            "node": 10,
            "path": "translation"
          }
        },
        {
          "sampler": 7,
          "target": {
            "node": 10,
            "path": "rotation"
          }
        },
        {
          "sampler": 8,
          "target": {
            "node": 10,
            "path": "scale"
          }
        },
        {
          "sampler": 9,
          "target": {
            "node": 12,
            "path": "translation"
          }
        },
        {
          "sampler": 10,
          "target": {
            "node": 12,
            "path": "rotation"
          }
        },
        {
          "sampler": 11,
          "target": {
            "node": 12,
            "path": "scale"
          }
        }
      ],
      "name": "Animation",
      "samplers": [
        {
          "input": 20,
          "interpolation": "LINEAR",
          "output": 21
        },
        {
          "input": 22,
          "interpolation": "LINEAR",
          "output": 23
        },
        {
          "input": 24,
          "interpolation": "LINEAR",
          "output": 25
        },
        {
          "input": 26,
          "interpolation": "LINEAR",
          "output": 27
        },
        {
          "input": 28,
          "interpolation": "LINEAR",
          "output": 29
        },
        {
          "input": 30,
          "interpolation": "LINEAR",
          "output": 31
        },
        {
          "input": 32,
          "interpolation": "LINEAR",
          "output": 33
        },
        {
          "input": 34,
          "interpolation": "LINEAR",
          "output": 35
        },
        {
          "input": 36,
          "interpolation": "LINEAR",
          "output": 37
        },
        {
          "input": 38,
          "interpolation": "LINEAR",
          "output": 39
        },
        {
          "input": 40,
          "interpolation": "LINEAR",
          "output": 41
        },
        {
          "input": 42,
          "interpolation": "LINEAR",
          "output": 43
        }
      ]
    }
  ],
  "asset": {
    "extras": {
      "author": "Spark (https://sketchfab.com/muammar.yacoob)",
      "license": "CC-BY-4.0 (http://creativecommons.org/licenses/by/4.0/)",
      "source": "https://sketchfab.com/3d-models/low-poly-train-c84cd4f7e43b4877aa16d0b920a5e751",
      "title": "Low Poly Train"
    },
    "generator": "Sketchfab-9.0.0",
    "version": "2.0"
  },
  "bufferViews": [
    {
      "buffer": 0,
      "byteLength": 175344,
      "byteOffset": 0,
      "name": "floatBufferViews",
      "target": 34963
    },
    {
      "buffer": 0,
      "byteLength": 191112,
      "byteOffset": 175344,
      "byteStride": 8,
      "name": "floatBufferViews",
      "target": 34962
    },
    {
      "buffer": 0,
      "byteLength": 573336,
      "byteOffset": 366456,
      "byteStride": 12,
      "name": "floatBufferViews",
      "target": 34962
    },
    {
      "buffer": 0,
      "byteLength": 24220,
      "byteOffset": 939792,
      "name": "floatBufferViews"
    },
    {
      "buffer": 0,
      "byteLength": 47316,
      "byteOffset": 964012,
      "byteStride": 12,
      "name": "floatBufferViews"
    },
    {
      "buffer": 0,
      "byteLength": 33792,
      "byteOffset": 1011328,
      "byteStride": 16,
      "name": "floatBufferViews"
    }
  ],
  "buffers": [
    {
      "byteLength": 1045120,
      "uri": "scene.bin"
    }
  ],
  "images": [
    {
      "uri": "textures/LowPoly_baseColor.png"
    }
  ],
  "materials": [
    {
      "doubleSided": true,
      "emissiveFactor": [
        0,
        0,
        0
      ],
      "name": "LowPoly",
      "pbrMetallicRoughness": {
        "baseColorFactor": [
          1,
          1,
          1,
          1
        ],
        "baseColorTexture": {
          "index": 0,
          "texCoord": 0
        },
        "metallicFactor": 0,
        "roughnessFactor": 1
      }
    }
  ],
  "meshes": [
    {
      "primitives": [
        {
          "attributes": {
            "NORMAL": 1,
            "POSITION": 0,
            "TEXCOORD_0": 2
          },
          "indices": 3,
          "material": 0,
          "mode": 4
        }
      ]
    },
    {
      "primitives": [
        {
          "attributes": {
            "NORMAL": 5,
            "POSITION": 4,
            "TEXCOORD_0": 6
          },
          "indices": 7,
          "material": 0,
          "mode": 4
        }
      ]
    },
    {
      "primitives": [
        {
          "attributes": {
            "NORMAL": 9,
            "POSITION": 8,
            "TEXCOORD_0": 10
          },
          "indices": 11,
          "material": 0,
          "mode": 4
        }
      ]
    },
    {
      "primitives": [
        {
          "attributes": {
            "NORMAL": 13,
            "POSITION": 12,
            "TEXCOORD_0": 14
          },
          "indices": 15,
          "material": 0,
          "mode": 4
        }
      ]
    },
    {
      "primitives": [
        {
          "attributes": {
            "NORMAL": 17,
            "POSITION": 16,
            "TEXCOORD_0": 18
          },
          "indices": 19,
          "material": 0,
          "mode": 4
        }
      ]
    }
  ],
  "nodes": [
    {
      "children": [
        1
      ],
      "name": "RootNode (gltf orientation matrix)",
      "rotation": [
        -0.70710678118654746,
        -0,
        -0,
        0.70710678118654757
      ]
    },
    {
      "children": [
        2
      ],
      "name": "RootNode (model correction matrix)"
    },
    {
      "children": [
        3
      ],
      "name": "root"
    },
    {
      "children": [
        4,
        6,
        8,
        10,
        12
      ],
      "matrix": [
        1,
        0,
        0,
        0,
        0,
        2.2204460492503131e-16,
        1,
        0,
        0,
        -1,
        2.2204460492503131e-16,
        0,
        0,
        0,
        0,
        1
      ],
      "name": "GLTF_SceneRootNode"
    },
    {
      "children": [
        5
      ],
      "name": "Cube_2"
    },
    {
      "mesh": 0,
      "name": ""
    },
    {
      "children": [
        7
      ],
      "name": "Head_3",
      "scale": [
        0.96948146820068359,
        1,
        1
      ],
      "translation": [
        -7.4283814430236816,
        -0.10716640204191208,
        4.6416101455688477
      ]
    },
    {
      "mesh": 1,
      "name": ""
    },
    {
      "children": [
        9
      ],
      "name": "Trailer_4",
      "rotation": [
        0,
        -1,
        0,
        1.9470718370939721e-07
      ],
      "translation": [
        -9.7237138748168945,
        -0.10716639459133148,
        4.290074348449707
      ]
    },
    {
      "mesh": 2,
      "name": ""
    },
    {
      "children": [
        11
      ],
      "name": "Trailer.001_5",
      "rotation": [
        0,
        -1,
        0,
        1.9470718370939721e-07
      ],
      "translation": [
        -11.185074806213379,
        -0.10716639459133148,
        3.413102388381958
      ]
    },
    {
      "mesh": 3,
      "name": ""
    },
    {
      "children": [
        13
      ],
      "name": "Trailer.002_6",
      "rotation": [
        0,
        -1,
        0,
        1.9470718370939721e-07
      ],
      "translation": [
        -12.357517242431641,
        -0.10716639459133148,
        2.217698335647583
      ]
    },
    {
      "mesh": 4,
      "name": ""
    }
  ],
  "samplers": [
    {
      "magFilter": 9729,
      "minFilter": 9987,
      "wrapS": 10497,
      "wrapT": 10497
    }
  ],
  "scene": 0,
  "scenes": [
    {
      "name": "OSG_Scene",
      "nodes": [
        0
      ]
    }
  ],
  "textures": [
    {
      "sampler": 0,
      "source": 0
    }
  ]
}

